<?xml version="1.0" standalone="no"?>
<!DOCTYPE svg PUBLIC "-//W3C//DTD SVG 20010904//EN"
 "http://www.w3.org/TR/2001/REC-SVG-20010904/DTD/svg10.dtd">
<svg version="1.0" xmlns="http://www.w3.org/2000/svg"
 width="286.000000pt" height="286.000000pt" viewBox="0 0 286.000000 286.000000"
 preserveAspectRatio="xMidYMid meet">
<metadata>
Created by potrace 1.11, written by Peter Selinger 2001-2013
</metadata>
<g transform="translate(0.000000,286.000000) scale(0.100000,-0.100000)"
fill="#000000" stroke="none">
<path d="M1275 2837 c-169 -81 -234 -318 -139 -508 12 -25 30 -52 40 -60 15
-12 9 -15 -60 -19 l-77 -5 -169 -381 c-149 -338 -168 -387 -166 -428 6 -111
120 -142 188 -52 9 13 55 135 101 272 46 137 87 256 90 264 4 8 4 -52 1 -135
-17 -494 -20 -543 -33 -593 -6 -20 -12 -48 -15 -62 -9 -49 -105 -507 -110
-521 -2 -8 -7 -25 -10 -39 l-5 -25 -265 3 -265 3 -40 -37 c-79 -71 -111 -180
-86 -290 15 -67 75 -176 106 -191 22 -11 208 -11 294 1 17 2 57 7 90 11 33 4
64 10 69 13 17 10 1038 18 1054 8 5 -3 30 -7 58 -10 27 -3 117 -14 199 -25
257 -34 282 -35 313 -15 212 136 240 306 74 455 -85 76 -99 81 -200 74 -48 -3
-103 -8 -122 -10 -19 -2 -71 -7 -115 -10 -44 -3 -92 -8 -106 -11 -17 -3 -28 0
-31 8 -3 7 -62 163 -133 347 l-127 334 1 385 c0 212 2 386 4 388 5 5 234 -523
242 -559 9 -35 59 -77 92 -77 65 0 108 60 100 137 -5 39 -13 59 -88 221 -22
46 -39 86 -39 88 0 2 -25 56 -55 119 -30 64 -55 119 -55 122 0 3 -22 52 -50
109 l-49 104 -108 1 c-59 1 -111 1 -115 0 -14 -2 -9 16 8 30 23 19 59 96 74
157 36 156 -42 348 -166 407 -62 29 -141 30 -199 2z m253 -2101 c61 -118 112
-216 112 -219 0 -2 -26 -2 -57 -1 -143 8 -273 13 -331 14 l-63 0 108 210 c59
115 110 210 113 210 3 0 56 -97 118 -214z"/>
</g>
</svg>
